<svg width="26" height="31" viewBox="0 0 26 31" fill="none" xmlns="http://www.w3.org/2000/svg">
<path d="M8.86839 16.8773H17.1317M8.86839 22.3862H13M1.98233 4.48245V26.5178C1.98233 27.2483 2.27253 27.9489 2.78908 28.4655C3.30564 28.982 4.00623 29.2722 4.73675 29.2722H21.2633C21.9938 29.2722 22.6944 28.982 23.211 28.4655C23.7275 27.9489 24.0177 27.2483 24.0177 26.5178V10.4623C24.0177 10.0954 23.9443 9.73212 23.8019 9.39392C23.6595 9.05572 23.451 8.74938 23.1886 8.49289L17.0738 2.51304C16.5592 2.00988 15.8682 1.72812 15.1485 1.72803H4.73675C4.00623 1.72803 3.30564 2.01822 2.78908 2.53478C2.27253 3.05133 1.98233 3.75193 1.98233 4.48245Z" stroke="#201B10" stroke-width="2" stroke-linecap="round" stroke-linejoin="round"/>
<path d="M15.7547 1.72803V7.23687C15.7547 7.96739 16.0449 8.66799 16.5615 9.18454C17.078 9.7011 17.7786 9.99129 18.5091 9.99129H24.018" stroke="#201B10" stroke-width="2" stroke-linejoin="round"/>
</svg>
