<svg width="35" height="35" viewBox="0 0 35 35" fill="none" xmlns="http://www.w3.org/2000/svg">
<g clip-path="url(#clip0_3624_519)">
<path d="M4.375 26.25C5.53532 26.25 6.64812 26.7109 7.46859 27.5314C8.28906 28.3519 8.75 29.4647 8.75 30.625C8.75 31.7853 8.28906 32.8981 7.46859 33.7186C6.64812 34.5391 5.53532 35 4.375 35C3.21468 35 2.10188 34.5391 1.28141 33.7186C0.460936 32.8981 0 31.7853 0 30.625C0 29.4647 0.460936 28.3519 1.28141 27.5314C2.10188 26.7109 3.21468 26.25 4.375 26.25ZM30.625 26.25C31.7853 26.25 32.8981 26.7109 33.7186 27.5314C34.5391 28.3519 35 29.4647 35 30.625C35 31.7853 34.5391 32.8981 33.7186 33.7186C32.8981 34.5391 31.7853 35 30.625 35C29.4647 35 28.3519 34.5391 27.5314 33.7186C26.7109 32.8981 26.25 31.7853 26.25 30.625C26.25 29.4647 26.7109 28.3519 27.5314 27.5314C28.3519 26.7109 29.4647 26.25 30.625 26.25ZM4.375 28.4375C3.79484 28.4375 3.23844 28.668 2.8282 29.0782C2.41797 29.4884 2.1875 30.0448 2.1875 30.625C2.1875 31.2052 2.41797 31.7616 2.8282 32.1718C3.23844 32.582 3.79484 32.8125 4.375 32.8125C4.95516 32.8125 5.51156 32.582 5.9218 32.1718C6.33203 31.7616 6.5625 31.2052 6.5625 30.625C6.5625 30.0448 6.33203 29.4884 5.9218 29.0782C5.51156 28.668 4.95516 28.4375 4.375 28.4375ZM30.625 28.4375C30.0448 28.4375 29.4884 28.668 29.0782 29.0782C28.668 29.4884 28.4375 30.0448 28.4375 30.625C28.4375 31.2052 28.668 31.7616 29.0782 32.1718C29.4884 32.582 30.0448 32.8125 30.625 32.8125C31.2052 32.8125 31.7616 32.582 32.1718 32.1718C32.582 31.7616 32.8125 31.2052 32.8125 30.625C32.8125 30.0448 32.582 29.4884 32.1718 29.0782C31.7616 28.668 31.2052 28.4375 30.625 28.4375ZM18.5938 9.84375V16.4062H25.1562V18.5938H18.5938V25.1562H16.4062V18.5938H9.84375V16.4062H16.4062V9.84375H18.5938ZM4.375 0C5.53532 0 6.64812 0.460936 7.46859 1.28141C8.28906 2.10188 8.75 3.21468 8.75 4.375C8.75 5.53532 8.28906 6.64812 7.46859 7.46859C6.64812 8.28906 5.53532 8.75 4.375 8.75C3.21468 8.75 2.10188 8.28906 1.28141 7.46859C0.460936 6.64812 0 5.53532 0 4.375C0 3.21468 0.460936 2.10188 1.28141 1.28141C2.10188 0.460936 3.21468 0 4.375 0ZM30.625 0C31.7853 0 32.8981 0.460936 33.7186 1.28141C34.5391 2.10188 35 3.21468 35 4.375C35 5.53532 34.5391 6.64812 33.7186 7.46859C32.8981 8.28906 31.7853 8.75 30.625 8.75C29.4647 8.75 28.3519 8.28906 27.5314 7.46859C26.7109 6.64812 26.25 5.53532 26.25 4.375C26.25 3.21468 26.7109 2.10188 27.5314 1.28141C28.3519 0.460936 29.4647 0 30.625 0ZM30.625 2.1875C30.0448 2.1875 29.4884 2.41797 29.0782 2.8282C28.668 3.23844 28.4375 3.79484 28.4375 4.375C28.4375 4.95516 28.668 5.51156 29.0782 5.9218C29.4884 6.33203 30.0448 6.5625 30.625 6.5625C31.2052 6.5625 31.7616 6.33203 32.1718 5.9218C32.582 5.51156 32.8125 4.95516 32.8125 4.375C32.8125 3.79484 32.582 3.23844 32.1718 2.8282C31.7616 2.41797 31.2052 2.1875 30.625 2.1875ZM4.375 2.1875C3.79484 2.1875 3.23844 2.41797 2.8282 2.8282C2.41797 3.23844 2.1875 3.79484 2.1875 4.375C2.1875 4.95516 2.41797 5.51156 2.8282 5.9218C3.23844 6.33203 3.79484 6.5625 4.375 6.5625C4.95516 6.5625 5.51156 6.33203 5.9218 5.9218C6.33203 5.51156 6.5625 4.95516 6.5625 4.375C6.5625 3.79484 6.33203 3.23844 5.9218 2.8282C5.51156 2.41797 4.95516 2.1875 4.375 2.1875Z" fill="#201B10"/>
<path d="M23.0541 31.7734C23.1656 32.5139 23.3822 33.2194 23.6906 33.8734C21.7121 34.6199 19.6147 35.0016 17.5 35C15.3202 35 13.2344 34.6019 11.3094 33.8734C11.6167 33.2194 11.8344 32.5139 11.9459 31.7734C13.6675 32.445 15.5411 32.8125 17.5 32.8125C19.4589 32.8125 21.3325 32.445 23.0541 31.7734ZM33.8734 11.3094C34.6199 13.2879 35.0016 15.3853 35 17.5C35 19.6798 34.6019 21.7656 33.8734 23.6906C33.2076 23.3787 32.5004 23.1643 31.7734 23.0541C32.445 21.3325 32.8125 19.4589 32.8125 17.5C32.8125 15.5411 32.445 13.6675 31.7734 11.9459C32.5004 11.8357 33.2076 11.6213 33.8734 11.3094ZM1.12657 11.3094C1.78063 11.6167 2.4861 11.8344 3.22657 11.9459C2.53867 13.7168 2.18632 15.6002 2.18751 17.5C2.18751 19.4589 2.55501 21.3325 3.22657 23.0541C2.49963 23.1643 1.79237 23.3787 1.12657 23.6906C0.380101 21.7121 -0.00158884 19.6147 4.97083e-06 17.5C4.97083e-06 15.3202 0.39813 13.2344 1.12657 11.3094ZM17.5 4.97083e-06C19.6798 4.97083e-06 21.7656 0.39813 23.6906 1.12657C23.3787 1.79237 23.1643 2.49963 23.0541 3.22657C21.2832 2.53867 19.3998 2.18632 17.5 2.18751C15.5411 2.18751 13.6675 2.55501 11.9459 3.22657C11.8357 2.49963 11.6213 1.79237 11.3094 1.12657C13.2879 0.380101 15.3853 -0.00158884 17.5 4.97083e-06Z" fill="#201B10"/>
</g>
<defs>
<clipPath id="clip0_3624_519">
<rect width="35" height="35" fill="white"/>
</clipPath>
</defs>
</svg>
