<svg width="35" height="35" viewBox="0 0 35 35" fill="none" xmlns="http://www.w3.org/2000/svg">
<path d="M17.5005 10.9966V17.4998L21.565 21.5643" stroke="#201B10" stroke-width="2.43872" stroke-linecap="round" stroke-linejoin="round"/>
<path d="M8.08167 27.9792C13.4846 32.8534 21.6733 32.8927 27.0231 28.0828L27.6871 28.7468C21.9655 33.9291 13.1825 33.8777 7.4176 28.6423L8.08167 27.9792ZM28.6432 7.41675C33.8783 13.1815 33.9284 21.9646 28.7477 27.6863L28.0836 27.0222C32.8935 21.6723 32.8546 13.4827 27.9801 8.07983L28.6432 7.41675ZM3.38635 16.1677C3.22396 18.1104 3.46079 20.0687 4.08655 21.9207C4.71211 23.772 5.71134 25.472 7.01819 26.9177L6.3551 27.5808C4.94586 26.0317 3.86877 24.2067 3.1969 22.2175C2.52526 20.229 2.27469 18.1255 2.45569 16.0398L3.38635 16.1677ZM8.4342 8.70776L8.42932 9.64624L7.34534 9.64136L7.9635 9.02319L8.27893 8.70679L8.4342 8.70776ZM7.31409 6.25269C13.0352 1.07103 21.8178 1.12216 27.5826 6.3562L26.9196 7.01929C21.5167 2.146 13.3266 2.10626 7.97717 6.91577L7.31409 6.25269ZM5.49573 5.92163L4.56213 6.85522L4.55627 5.77417L5.49475 5.76831L5.49573 5.92163Z" stroke="#201B10" stroke-width="1.5"/>
</svg>
