<svg width="260" height="54" viewBox="0 0 260 54" fill="none" xmlns="http://www.w3.org/2000/svg">
<path d="M157.367 33.5217L163.985 23.4985H157.781L150.942 33.8545V23.4985H145.469V44.7826H150.942V34.7766H153.131L157.781 44.7826H163.985L158.753 33.5217H157.367Z" fill="#FF5F00"/>
<path d="M142.389 23.4985H136.916V41.4354H133.718V23.4985H128.245V41.4354H125.048V23.4985H119.575V41.4354H119.569L119.575 41.6024V44.7826H119.691H125.048H128.245H133.718H136.916H142.389H142.512L142.389 41.4354V23.4985Z" fill="#FF5F00"/>
<path d="M195.187 23.4985H192.45H191.59H188.964H187.046L182.182 44.7826H188.386L191.764 27.0913H192.276L195.654 44.7826H201.859L196.995 23.4985H195.187Z" fill="#FF5F00"/>
<path d="M227.385 23.4986H218.469L208.636 30.7824V23.4986H203.164V44.7827H208.636V41.6209C209.867 43.976 212.231 45.4593 214.946 45.4593C218.931 45.4593 222.165 42.0323 222.165 37.8108C222.165 34.1603 219.753 31.109 216.529 30.3429L221.687 27.0914H223.519V44.7815H228.992V23.4974H227.387L227.385 23.4986ZM217.804 37.3921C217.804 39.299 216.346 40.8437 214.557 40.8437C212.768 40.8437 211.31 39.299 211.31 37.3921C211.31 35.4852 212.768 33.9467 214.557 33.9467C216.346 33.9467 217.804 35.4914 217.804 37.3921Z" fill="#FF5F00"/>
<path d="M172.477 22.7901C166.709 22.7901 162.03 27.7557 162.03 33.8718C162.03 39.9879 166.71 44.9411 172.477 44.9411C178.245 44.9411 182.925 39.9817 182.925 33.8718C182.925 27.7618 178.238 22.7901 172.477 22.7901ZM172.477 38.992C169.808 38.992 167.644 36.6971 167.644 33.8669C167.644 31.0366 169.808 28.7417 172.477 28.7417C175.146 28.7417 177.311 31.0366 177.311 33.8669C177.311 36.6971 175.146 38.992 172.477 38.992Z" fill="#FF5F00"/>
<path d="M119.834 27.2736C114.908 35.3346 106.256 42.9462 102.554 42.9462C101.248 42.9462 100.631 42.0192 100.516 40.5359C106.235 38.8242 113.087 28.774 113.087 21.57C113.087 18.8196 112.079 16.9557 109.975 16.9557C104.662 16.9557 97.086 32.2403 97.086 40.3259C97.086 44.1533 98.383 46.8976 101.624 46.8976C106.795 46.8976 114.654 41.5133 122.974 29.4101L119.831 27.2748L119.834 27.2736ZM110.234 19.9394L110.536 20.5055C110.069 20.8566 109.731 21.1452 109.313 21.6007C109.313 26.737 105.088 34.1423 101.027 36.4016C102.567 30.3064 107.121 21.8758 110.234 19.9394Z" fill="#CB81FF"/>
<path d="M93.9705 24.4744C93.1925 26.1837 88.1049 35.157 84.7586 39.0678C86.1526 33.5485 88.7197 26.3224 89.9419 22.85L85.8029 22.6965L81.2099 37.1879C80.6626 38.9168 79.2416 44.2028 83.2211 44.1967C87.0337 44.1906 94.0011 32.2285 95.0282 28.7524L95.8896 28.8813C94.9055 31.5274 92.8452 35.5512 91.6525 36.8196L89.9431 44.8684H93.903L98.5647 25.2947C99.3145 22.1378 95.908 20.2125 93.9717 24.4757L93.9705 24.4744Z" fill="#CB81FF"/>
<path d="M79.15 22.6722L76.9608 30.5294C75.6466 31.7782 73.7888 32.7777 72.369 33.1853L75.2883 22.671H71.4143L65.3206 44.8662H69.1945L71.137 37.1981C73.5286 36.783 75.8663 35.7086 77.9265 33.2615L78.302 34.0424C77.1154 35.5625 75.9595 36.2084 75.0735 36.6455L72.9519 44.8662H76.8933L83.03 22.671H79.15V22.6722Z" fill="#CB81FF"/>
<path d="M65.8921 22.5553C64.9877 22.5553 63.9238 23.0538 62.3936 25.3426L56.9171 33.5264L58.9369 28.0562C59.964 25.2812 59.1148 23.8225 57.5724 23.8225C56.3612 23.8225 54.7071 24.8441 52.9916 27.2925L47.3347 35.3535H45.8732C48.4575 31.4845 50.6086 27.1537 52.2848 23.8347L48.1213 23.8654C47.1433 25.8104 38.4726 41.3468 33.8796 41.3468C33.1163 41.3468 32.5654 41.0509 32.1973 40.529C38.507 35.3216 44.6461 25.3143 44.6461 20.0872C44.6461 18.0379 43.6988 16.7216 41.4483 16.7216C35.5018 16.7216 28.2828 28.9292 28.2828 37.2678C28.2828 37.7798 28.3074 38.2882 28.3552 38.7854C27.3367 39.5062 26.463 39.92 25.8532 39.92C25.2813 39.92 24.9488 39.5013 24.9488 38.535C24.9488 33.0463 33.5949 11.621 38.588 0.286407H33.8403C21.5007 18.9551 11.274 35.6556 0.334473 53.967H5.14346C8.23084 48.6134 24.8641 18.8937 28.8804 13.8103H29.7173C28.5123 15.5637 27.8362 16.6467 27.1097 17.9335C24.3119 26.1112 21.1264 34.5529 21.1264 38.9402C21.1264 41.8748 22.5596 43.8627 25.0862 43.8627C26.4262 43.8627 27.8914 43.3605 29.3995 42.4961C30.1934 43.9278 31.4463 44.8659 33.2771 44.8659C36.9265 44.8659 40.1979 42.4691 43.0546 39.1182H44.1798L40.312 44.8659H44.8192C47.2918 41.4512 51.2087 35.0637 56.2201 28.8617L56.8165 29.4277L54.0617 33.1814L50.4945 43.2856H54.1169C57.7209 38.2894 60.8561 33.3238 64.5521 28.3705L65.1669 28.8752L62.012 33.6504L59.0179 44.8684H62.8673L67.8972 26.3777C68.5672 23.9232 67.448 22.5565 65.8921 22.5565V22.5553ZM41.6079 19.6329L42.1797 20.1867C41.5588 20.5072 40.9563 20.9062 40.3476 21.3925C39.5966 25.9737 35.6012 31.7914 31.8647 35.6728C32.9814 29.828 37.5511 21.3372 41.6079 19.6317V19.6329Z" fill="#CB81FF"/>
<path d="M81.2351 14.9006L80.0976 11.0671L53.3665 18.6051L54.7568 22.6227L81.2351 14.9006Z" fill="#CB81FF"/>
<path d="M24.2156 17.2069C24.0218 17.2069 23.8242 17.1529 23.6499 17.0387C23.1665 16.7256 23.0278 16.0797 23.3419 15.596C24.7151 13.4754 29.0295 6.87676 30.8604 4.08087C31.1757 3.59954 31.8224 3.46448 32.3046 3.78004C32.7869 4.09561 32.9207 4.7427 32.6053 5.22526C30.7745 8.01869 26.4637 14.6124 25.093 16.7305C24.893 17.0387 24.558 17.2069 24.2169 17.2069H24.2156Z" fill="#FCE300"/>
<path d="M30.2243 31.7789C30.12 31.7789 30.0133 31.7629 29.9077 31.7297C29.3592 31.5554 29.0549 30.9685 29.2292 30.4196C30.0746 27.7588 33.605 20.8519 34.5265 19.3171C34.8235 18.8235 35.464 18.6638 35.9573 18.9598C36.4506 19.2569 36.6114 19.8979 36.3144 20.3915C35.3241 22.0405 31.968 28.6858 31.2171 31.0507C31.0759 31.4952 30.6661 31.7789 30.2231 31.7789H30.2243Z" fill="#FCE300"/>
<path d="M42.5579 35.2996C42.4328 35.2996 42.3039 35.2763 42.18 35.2284C41.6425 35.0196 41.3775 34.4143 41.5861 33.8777C42.2058 32.2851 45.5889 26.7511 46.6466 25.1254C46.9608 24.6428 47.6074 24.5065 48.0897 24.8208C48.5719 25.1352 48.7081 25.7823 48.394 26.2648C47.2013 28.0968 44.0292 33.3485 43.5298 34.6341C43.3691 35.0467 42.9752 35.2996 42.5579 35.2996Z" fill="#FCE300"/>
<path d="M64.0347 16.9926C63.5831 16.9926 63.1671 16.6966 63.0333 16.2411C62.8726 15.6873 63.1892 15.1078 63.7426 14.9469L76.0553 11.3517C76.6087 11.1908 77.1879 11.5076 77.3486 12.0614C77.5094 12.6152 77.1928 13.1947 76.6394 13.3556L64.3267 16.9508C64.2298 16.9791 64.1304 16.9926 64.0347 16.9926Z" fill="#FCE300"/>
<path d="M67.6752 38.4992C67.5783 38.4992 67.4801 38.4857 67.3819 38.4575C66.8285 38.2954 66.5119 37.7158 66.6727 37.1633L69.3109 28.1224C69.4729 27.5686 70.0509 27.2506 70.6043 27.4127C71.1577 27.5748 71.4743 28.1543 71.3135 28.7069L68.6753 37.7478C68.5428 38.2033 68.1255 38.4992 67.674 38.4992H67.6752Z" fill="#FCE300"/>
<path d="M88.0636 36.2539C87.8157 36.2539 87.5679 36.1667 87.3691 35.9875C86.9396 35.6031 86.9028 34.9438 87.2868 34.514C89.7828 31.7218 92.3695 26.5242 93.2199 24.8162L93.3364 24.5829C93.5941 24.0672 94.2199 23.8584 94.7353 24.1163C95.2507 24.3742 95.4593 25.0016 95.2016 25.5161L95.0863 25.7469C94.2052 27.5175 91.524 32.9055 88.8404 35.9064C88.6342 36.1373 88.3495 36.2539 88.0624 36.2539H88.0636Z" fill="#FCE300"/>
<path d="M105.93 31.4192C105.698 31.4192 105.465 31.3431 105.272 31.1847C104.825 30.8213 104.758 30.1631 105.122 29.7162C106.151 28.4527 107.557 25.3854 107.898 24.2693C108.066 23.718 108.65 23.4073 109.2 23.5768C109.751 23.745 110.061 24.3282 109.892 24.8795C109.498 26.1664 108.003 29.4816 106.74 31.0337C106.533 31.2866 106.233 31.418 105.93 31.418V31.4192Z" fill="#FCE300"/>
<path d="M104.098 43.4116C103.67 43.4116 103.267 43.1452 103.115 42.7178C102.923 42.1751 103.205 41.5784 103.748 41.3844C105.639 40.7115 108.288 38.7702 111.207 35.9203C113.695 33.4903 115.789 30.9633 116.494 29.8189C116.797 29.329 117.439 29.1768 117.93 29.4788C118.42 29.7821 118.572 30.4243 118.27 30.9154C116.791 33.3123 109.534 41.5403 104.448 43.3514C104.333 43.392 104.215 43.4116 104.098 43.4116Z" fill="#FCE300"/>
<path d="M246.189 30.5093C253.632 30.5093 259.665 24.4756 259.665 17.0326C259.665 9.58963 253.632 3.55591 246.189 3.55591C238.746 3.55591 232.712 9.58963 232.712 17.0326C232.712 24.4756 238.746 30.5093 246.189 30.5093Z" fill="black"/>
<path d="M245.566 16.9377H243.956C243.956 18.0365 243.678 19.2748 243.151 20.1105C241.944 19.3986 240.969 18.3307 240.164 17.3402C241.913 16.8141 244.033 15.9163 244.033 13.6876C244.033 11.985 242.826 10.6694 240.721 10.6694C238.462 10.6694 237.27 12.248 237.27 13.9195C237.27 14.8173 237.517 15.7611 238.044 16.7827C236.775 17.4792 236.156 18.5471 236.156 19.7389C236.156 21.7663 238.044 23.051 240.319 23.051C241.371 23.051 242.439 22.6332 243.383 21.8284C244.575 22.5094 245.906 22.8499 247.253 22.8499V21.5035C246.463 21.4726 245.163 21.2405 244.451 20.7916C245.178 19.6619 245.534 18.2534 245.565 16.9379L245.566 16.9377ZM240.68 12.0161C241.791 12.0188 242.439 12.8685 242.439 13.6873C242.439 14.91 240.969 15.6373 239.452 16.21C239.05 15.4052 238.864 14.6932 238.864 13.9658C238.864 13.0245 239.48 12.0216 240.68 12.0158V12.0161ZM240.319 21.7046C238.973 21.7046 237.75 21.101 237.75 19.7391C237.75 19.1664 237.951 18.3927 238.74 17.8975C239.607 19.0892 240.768 20.188 242.099 21.0858C241.619 21.4726 241.062 21.7048 240.319 21.7048L240.319 21.7046Z" fill="#F3F4F4"/>
<path d="M251.597 10.6694C250.545 10.6694 249.477 11.0872 248.533 11.892C247.341 11.211 246.01 10.8705 244.664 10.8705V12.2169C245.453 12.2478 246.753 12.4799 247.465 12.9288C246.738 14.0585 246.382 15.467 246.351 16.7825H247.96C247.96 15.6837 248.239 14.4454 248.765 13.6096C249.973 14.3216 250.948 15.3895 251.752 16.3799C250.003 16.906 247.883 17.8038 247.883 20.0326C247.883 21.7349 249.09 23.0505 251.195 23.0505C253.455 23.0505 254.647 21.4719 254.647 19.8004C254.647 18.9026 254.399 17.9588 253.873 16.9372C255.142 16.2407 255.761 15.1728 255.761 13.981C255.761 11.9541 253.873 10.6694 251.597 10.6694ZM251.236 21.7043C250.125 21.7016 249.477 20.8519 249.477 20.0331C249.477 18.8104 250.947 18.0831 252.464 17.5104C252.866 18.3152 253.052 19.0272 253.052 19.7546C253.052 20.6959 252.436 21.6988 251.236 21.7046V21.7043ZM253.176 15.8232C252.309 14.6315 251.149 13.5327 249.818 12.6349C250.297 12.248 250.855 12.0158 251.597 12.0158C252.944 12.0158 254.167 12.6194 254.167 13.9813C254.167 14.554 253.965 15.3277 253.176 15.8229L253.176 15.8232Z" fill="#F3F4F4"/>
</svg>
