<svg width="35" height="35" viewBox="0 0 35 35" fill="none" xmlns="http://www.w3.org/2000/svg">
<path d="M17.4999 4.68408V22.222" stroke="#201B10" stroke-width="2.5" stroke-miterlimit="10" stroke-linecap="round"/>
<path d="M24.2446 10.8734L18.4623 5.08964C18.2065 4.83654 17.8612 4.69458 17.5013 4.69458C17.1414 4.69458 16.7961 4.83654 16.5403 5.08964L10.755 10.8734M4.01026 20.198V26.9428C4.00968 27.3859 4.09654 27.8248 4.26585 28.2343C4.43516 28.6438 4.6836 29.0159 4.99694 29.3292C5.31028 29.6426 5.68236 29.891 6.09186 30.0603C6.50137 30.2296 6.94026 30.3165 7.38338 30.3159H27.6178C28.0608 30.3163 28.4995 30.2293 28.9088 30.0599C29.3182 29.8905 29.6901 29.642 30.0033 29.3287C30.3164 29.0154 30.5648 28.6434 30.734 28.234C30.9032 27.8245 30.99 27.3858 30.9894 26.9428V20.198" stroke="#201B10" stroke-width="2.5" stroke-linecap="round" stroke-linejoin="round"/>
</svg>
